{"glyphs":{":":{"x_min":0,"x_max":286,"ha":286,"o":"m 74 389 q 74 419 93 436 q 112 452 138 452 q 164 452 183 436 q 202 419 202 389 q 202 359 183 342 q 164 325 138 325 q 112 325 93 342 q 74 359 74 389 z m 74 61 q 74 91 93 108 q 112 124 138 124 q 164 124 183 108 q 202 91 202 61 q 202 31 183 14 q 164 -3 138 -3 q 112 -3 93 14 q 74 31 74 61 z"},"$":{"x_min":0,"x_max":952,"ha":952,"o":"m 622 125 l 641 125 q 703 125 740 156 q 774 185 774 225 q 774 265 741 292 q 704 322 641 322 l 622 322 z m 452 322 l 452 125 l 497 125 l 497 322 z m 452 594 l 452 447 l 497 447 l 497 594 z m 327 447 l 327 594 l 301 594 q 261 594 238 572 q 215 550 215 520 q 215 490 236 470 q 260 447 301 447 z m 452 -30 l 327 -30 l 327 0 l 93 0 l 93 125 l 327 125 l 327 322 l 301 322 q 196 322 133 384 q 77 440 77 521 q 77 601 133 657 q 196 719 301 719 l 327 719 l 327 759 l 452 759 l 452 719 l 497 719 l 497 759 l 622 759 l 622 719 l 844 719 l 844 594 l 622 594 l 622 447 l 641 447 q 756 447 825 377 q 887 313 887 222 q 887 131 826 69 q 758 0 641 0 l 622 0 l 622 -30 l 497 -30 l 497 0 l 452 0 z"},"?":{"x_min":0,"x_max":730,"ha":730,"o":"m 488 594 l 43 594 l 43 719 l 468 719 q 590 719 661 655 q 725 598 725 515 q 725 433 661 376 q 590 312 468 312 l 168 312 l 168 174 l 43 174 l 43 375 q 43 400 62 418 q 80 437 106 437 l 488 437 q 544 437 576 462 q 606 484 606 516 q 606 548 575 571 q 544 594 488 594 z m 40 61 q 40 91 60 108 q 79 124 105 124 q 131 124 150 108 q 169 91 169 61 q 169 31 150 14 q 131 -3 105 -3 q 78 -3 59 14 q 40 31 40 61 z"},"<":{"x_min":0,"x_max":824,"ha":824,"o":"m 80 350 q 29 367 29 409 q 29 452 80 469 l 764 700 l 764 569 l 294 409 l 764 250 l 764 119 z"},"'":{"x_min":0,"x_max":283,"ha":283,"o":"m 51 537 l 51 757 l 176 757 l 136 537 z"},"=":{"x_min":0,"x_max":554,"ha":554,"o":"m 76 388 l 76 513 l 497 513 l 497 388 z m 76 199 l 76 324 l 497 324 l 497 199 z"},"a":{"x_min":0,"x_max":984,"ha":984,"o":""},"L":{"x_min":0,"x_max":682,"ha":682,"o":"m 36 0 l 36 719 l 161 719 l 161 125 l 656 125 l 656 0 z"},"3":{"x_min":0,"x_max":955,"ha":955,"o":"m 73 1 l 588 1 q 724 1 803 66 q 875 125 875 209 q 875 297 799 356 q 875 417 875 506 q 875 593 803 653 q 724 720 588 720 l 73 720 l 73 595 l 608 595 q 677 595 718 568 q 754 543 754 507 q 754 471 717 446 q 677 418 608 418 l 271 418 l 271 293 l 608 293 q 677 293 717 266 q 754 243 754 209 q 754 175 718 152 q 677 126 608 126 l 73 126 z"},";":{"x_min":0,"x_max":286,"ha":286,"o":"m 77 389 q 77 419 96 436 q 115 452 142 452 q 168 452 187 436 q 206 419 206 389 q 206 359 187 342 q 168 325 141 325 q 115 325 96 342 q 77 359 77 389 z m 73 -26 l 73 211 l 198 211 l 145 -26 z"},"J":{"x_min":0,"x_max":776,"ha":776,"o":"m 334 0 l 72 0 l 72 125 l 334 125 q 457 125 515 163 q 585 210 585 324 l 585 719 l 710 719 l 710 324 q 710 150 607 71 q 516 0 334 0 z"},"V":{"x_min":0,"x_max":971,"ha":971,"o":"m 567 59 q 524 -9 492 -12 q 456 -15 411 59 l 10 719 l 171 719 l 492 185 l 816 719 l 977 719 z"},"\"":{"x_min":0,"x_max":519,"ha":519,"o":"m 287 537 l 287 757 l 412 757 l 372 537 z m 102 537 l 102 757 l 227 757 l 187 537 z"},"7":{"x_min":0,"x_max":716,"ha":716,"o":"m 228 1 l 56 1 l 499 594 l 29 594 l 29 719 l 572 719 q 620 719 648 698 q 675 678 675 645 q 675 610 647 572 z"},"S":{"x_min":0,"x_max":878,"ha":878,"o":"m 591 0 l 43 0 l 43 125 l 591 125 q 653 125 690 156 q 724 185 724 225 q 724 265 691 292 q 654 322 591 322 l 251 322 q 145 322 83 384 q 27 440 27 521 q 27 601 83 657 q 145 719 251 719 l 794 719 l 794 594 l 251 594 q 211 594 188 572 q 165 550 165 520 q 165 490 186 470 q 210 447 251 447 l 591 447 q 706 447 775 377 q 837 313 837 222 q 837 131 776 69 q 708 0 591 0 z"},"}":{"x_min":0,"x_max":489,"ha":489,"o":""},"Z":{"x_min":0,"x_max":845,"ha":845,"o":"m 134 0 q 53 0 53 51 q 53 84 91 123 l 562 594 l 35 594 l 35 719 l 696 719 q 734 719 756 702 q 779 685 779 659 q 779 628 747 596 l 277 125 l 806 125 l 806 0 z"},"x":{"x_min":0,"x_max":912,"ha":912,"o":""},")":{"x_min":0,"x_max":489,"ha":489,"o":"m 94 0 q 252 0 333 67 q 410 130 410 246 l 410 468 q 410 598 336 658 q 262 719 94 719 l 32 719 l 32 594 l 94 594 q 203 594 247 561 q 285 533 285 468 l 285 246 q 285 125 94 125 l 32 125 l 32 0 z"},"&":{"x_min":0,"x_max":779,"ha":779,"o":"m 451 126 l 451 293 l 297 293 q 228 293 188 266 q 151 243 151 209 q 151 175 187 152 q 228 126 297 126 z m 317 1 q 181 1 102 66 q 30 125 30 209 q 30 297 106 356 q 30 417 30 506 q 30 593 102 653 q 181 720 317 720 l 371 720 l 371 595 l 297 595 q 228 595 187 568 q 151 543 151 507 q 151 471 188 446 q 228 418 297 418 l 451 418 l 451 539 l 569 539 l 569 418 l 732 418 l 732 293 l 569 293 l 569 126 l 732 126 l 732 1 z"},"_":{"x_min":0,"x_max":787,"ha":787,"o":"m 3 -224 l 3 -99 l 787 -99 l 787 -224 z"},"v":{"x_min":0,"x_max":971,"ha":971,"o":""},"O":{"x_min":0,"x_max":1011,"ha":1011,"o":"m 413 594 q 305 594 238 523 q 179 460 175 367 q 172 269 231 201 q 297 125 413 125 l 614 125 q 730 125 796 201 q 855 269 851 367 q 848 460 788 523 q 722 594 614 594 z m 413 0 q 245 0 143 115 q 51 220 51 367 q 51 512 139 609 q 239 719 413 719 l 614 719 q 788 719 887 609 q 976 512 976 367 q 976 220 884 115 q 782 0 614 0 z"},"(":{"x_min":0,"x_max":474,"ha":474,"o":"m 357 0 q 200 0 119 67 q 42 130 42 246 l 42 468 q 42 598 114 657 q 190 719 357 719 l 420 719 l 420 594 l 357 594 q 249 594 205 561 q 167 533 167 468 l 167 246 q 167 125 357 125 l 420 125 l 420 0 z"},"C":{"x_min":0,"x_max":871,"ha":871,"o":"m 413 0 q 245 0 143 115 q 51 220 51 367 q 51 512 139 609 q 239 719 413 719 l 818 719 l 818 594 l 413 594 q 305 594 238 523 q 179 460 175 367 q 172 269 231 201 q 297 125 413 125 l 818 125 l 818 0 z"},"W":{"x_min":0,"x_max":1268,"ha":1268,"o":"m 640 244 l 537 59 q 499 -9 462 -12 q 422 -15 382 59 l 20 719 l 181 719 l 462 195 l 563 384 l 380 719 l 541 719 l 822 195 l 1106 719 l 1267 719 l 897 59 q 859 -9 822 -12 q 782 -15 742 59 z"},"A":{"x_min":0,"x_max":984,"ha":984,"o":"m 709 202 l 368 202 l 444 327 l 634 327 l 509 534 l 185 1 l 24 1 l 414 651 q 433 682 463 702 q 489 720 509 721 q 531 723 558 706 q 589 686 610 651 l 992 1 l 830 1 z"},"f":{"x_min":0,"x_max":731,"ha":731,"o":""},"Q":{"x_min":0,"x_max":1018,"ha":1018,"o":"m 976 0 l 791 0 l 763 28 q 695 0 614 0 l 413 0 q 245 0 143 115 q 51 220 51 367 q 51 512 139 609 q 239 719 413 719 l 614 719 q 788 719 887 609 q 976 512 976 367 q 976 209 873 103 z m 851 367 q 848 460 788 523 q 722 594 614 594 l 413 594 q 305 594 238 523 q 179 460 175 367 q 172 269 231 201 q 297 125 413 125 l 614 125 q 639 125 662 129 l 575 217 l 758 217 l 785 190 q 855 260 851 367 z"},"w":{"x_min":0,"x_max":1268,"ha":1268,"o":""},"-":{"x_min":0,"x_max":530,"ha":530,"o":"m 45 301 l 45 426 l 436 426 l 436 301 z"},"E":{"x_min":0,"x_max":760,"ha":760,"o":"m 656 427 l 656 302 l 245 302 l 245 427 z m 192 125 l 688 125 l 688 0 l 67 0 l 67 719 l 688 719 l 688 594 l 192 594 z"},"s":{"x_min":0,"x_max":878,"ha":878,"o":""},">":{"x_min":0,"x_max":756,"ha":756,"o":"m 15 117 l 15 250 l 484 409 l 15 569 l 15 700 l 699 469 q 749 452 749 410 q 749 368 699 350 z"},"l":{"x_min":0,"x_max":682,"ha":682,"o":""},"8":{"x_min":0,"x_max":960,"ha":960,"o":"m 321 293 q 252 293 211 266 q 174 243 174 209 q 174 175 211 152 q 251 126 321 126 l 608 126 q 677 126 718 152 q 754 175 754 209 q 754 243 717 266 q 677 293 608 293 z m 321 595 q 251 595 212 569 q 174 543 174 507 q 174 471 211 446 q 252 418 321 418 l 608 418 q 677 418 717 446 q 754 471 754 507 q 754 543 718 568 q 677 595 608 595 z m 340 1 q 203 1 122 66 q 50 123 50 206 q 50 301 139 356 q 50 413 50 511 q 50 596 121 654 q 201 720 340 720 l 588 720 q 727 720 809 654 q 882 595 882 511 q 882 413 789 356 q 879 301 879 207 q 879 124 807 66 q 726 1 588 1 z"},"\\":{"x_min":0,"x_max":813,"ha":813,"o":"m 675 -1 l 34 719 l 166 719 l 813 -1 z"},"e":{"x_min":0,"x_max":760,"ha":760,"o":""},"b":{"x_min":0,"x_max":938,"ha":938,"o":""},"%":{"x_min":0,"x_max":1214,"ha":1214,"o":"m 879 0 q 782 0 701 40 q 596 90 596 184 q 596 277 701 328 q 782 367 879 367 q 977 367 1058 328 q 1162 277 1162 184 q 1162 90 1058 40 q 977 0 879 0 z m 250 0 l 48 0 l 928 719 l 1125 719 z m 293 352 q 195 352 114 391 q 10 442 10 535 q 10 629 114 679 q 195 719 293 719 q 390 719 471 679 q 576 629 576 535 q 576 442 471 391 q 390 352 293 352 z m 1007 214 q 953 243 868 243 q 775 243 732 199 q 726 192 726 184 q 726 167 752 153 q 805 125 891 125 q 984 125 1027 169 q 1033 175 1033 183 q 1033 200 1007 214 z m 420 566 q 367 594 281 594 q 188 594 145 550 q 139 544 139 536 q 139 519 165 505 q 219 476 304 476 q 397 476 440 520 q 446 527 446 535 q 446 552 420 566 z"},"m":{"x_min":0,"x_max":1208,"ha":1208,"o":""},"#":{"x_min":0,"x_max":820,"ha":820,"o":"m 587 256 l 587 85 l 462 85 l 462 256 l 324 256 l 324 85 l 199 85 l 199 256 l 35 256 l 35 381 l 199 381 l 199 438 l 35 438 l 35 563 l 199 563 l 199 734 l 324 734 l 324 563 l 462 563 l 462 734 l 587 734 l 587 563 l 751 563 l 751 438 l 587 438 l 587 381 l 751 381 l 751 256 z m 462 438 l 324 438 l 324 381 l 462 381 z"},",":{"x_min":0,"x_max":281,"ha":281,"o":"m 55 -63 l 55 157 l 180 157 l 140 -63 z"},"n":{"x_min":0,"x_max":887,"ha":887,"o":""},"h":{"x_min":0,"x_max":858,"ha":858,"o":""},"z":{"x_min":0,"x_max":845,"ha":845,"o":""},"B":{"x_min":0,"x_max":938,"ha":938,"o":"m 799 356 q 875 297 875 209 q 875 125 803 66 q 724 1 588 1 l 73 1 l 73 720 l 588 720 q 724 720 803 653 q 875 593 875 506 q 875 417 799 356 z m 608 126 q 677 126 718 152 q 754 175 754 209 q 754 243 717 266 q 677 293 608 293 l 271 293 l 271 418 l 608 418 q 677 418 717 446 q 754 471 754 507 q 754 543 718 568 q 677 595 608 595 l 198 595 l 198 126 z"},"K":{"x_min":0,"x_max":807,"ha":807,"o":"m 194 0 l 69 0 l 69 719 l 194 719 z m 611 0 l 796 0 l 367 352 l 796 719 l 611 719 l 254 413 q 218 382 218 355 q 218 329 254 298 z"},"R":{"x_min":0,"x_max":959,"ha":959,"o":"m 910 0 l 725 0 l 524 202 l 254 202 l 254 327 l 590 327 q 678 327 724 370 q 764 409 761 466 q 754 594 590 594 l 180 594 l 180 0 l 55 0 l 55 719 l 571 719 q 734 719 818 640 q 889 574 892 466 q 895 381 847 316 q 794 244 693 217 z"},"T":{"x_min":0,"x_max":733,"ha":733,"o":"m 433 594 l 433 0 l 308 0 l 308 594 l 24 594 l 24 719 l 716 719 l 716 594 z"},"P":{"x_min":0,"x_max":880,"ha":880,"o":"m 180 0 l 55 0 l 55 719 l 571 719 q 706 719 786 638 q 858 565 858 460 q 858 355 786 282 q 706 202 570 202 l 254 202 l 254 327 l 590 327 q 659 327 700 369 q 737 407 737 461 q 737 515 700 553 q 660 594 590 594 l 180 594 z"},"|":{"x_min":0,"x_max":314,"ha":314,"o":"m 89 -222 l 89 811 l 212 811 l 212 -222 z"},"t":{"x_min":0,"x_max":733,"ha":733,"o":""},"M":{"x_min":0,"x_max":1208,"ha":1208,"o":"m 514 38 l 273 502 l 169 -2 l 28 -2 l 188 658 q 204 724 263 729 q 306 733 344 658 l 585 188 l 825 659 q 863 733 906 729 q 965 724 981 659 l 1141 -2 l 1000 -2 l 896 502 l 655 38 q 630 -10 587 -10 q 539 -10 514 38 z"},"g":{"x_min":0,"x_max":916,"ha":916,"o":""},"j":{"x_min":0,"x_max":776,"ha":776,"o":""},"i":{"x_min":0,"x_max":314,"ha":314,"o":""},"y":{"x_min":0,"x_max":875,"ha":875,"o":""},"@":{"x_min":0,"x_max":967,"ha":967,"o":"m 389 390 l 389 357 q 389 298 491 298 l 527 298 l 527 390 z m 893 308 q 893 228 767 194 q 688 173 577 173 l 491 173 q 386 173 327 213 q 264 256 264 338 l 264 390 q 264 428 292 459 q 327 497 389 497 l 527 497 q 652 497 652 390 l 652 297 l 674 296 q 712 295 738 310 q 765 325 765 357 l 765 507 q 765 559 684 581 q 636 594 577 594 l 382 594 q 322 594 275 581 q 195 559 195 507 l 195 191 q 195 153 278 136 q 329 125 382 125 l 867 125 l 867 0 l 382 0 q 275 0 186 31 q 66 73 66 153 l 66 566 q 66 719 382 719 l 577 719 q 691 719 775 691 q 893 651 893 565 z"},".":{"x_min":0,"x_max":294,"ha":294,"o":"m 64 61 q 64 91 83 108 q 102 124 128 124 q 154 124 173 108 q 192 91 192 61 q 192 31 173 14 q 154 -3 128 -3 q 102 -3 83 14 q 64 31 64 61 z"},"p":{"x_min":0,"x_max":880,"ha":880,"o":""},"X":{"x_min":0,"x_max":912,"ha":912,"o":"m 715 0 l 873 0 l 591 352 l 888 719 l 725 719 l 500 439 q 461 391 461 354 q 461 317 500 269 z m 191 0 l 33 0 l 315 352 l 18 719 l 181 719 l 406 439 q 445 391 445 354 q 445 317 406 269 z"},"*":{"x_min":0,"x_max":498,"ha":498,"o":"m 284 340 l 229 207 l 170 338 l 27 349 l 133 446 l 99 585 l 224 514 l 346 589 l 317 449 l 427 356 z"},"Y":{"x_min":0,"x_max":875,"ha":875,"o":"m 496 0 l 371 0 l 371 240 l 5 719 l 166 719 l 437 365 l 691 719 l 852 719 l 496 238 z"},"c":{"x_min":0,"x_max":871,"ha":871,"o":""},"!":{"x_min":0,"x_max":301,"ha":301,"o":"m 75 174 l 75 719 l 200 719 l 200 174 z m 75 61 q 75 91 94 108 q 113 124 139 124 q 165 124 184 108 q 203 91 203 61 q 203 31 184 14 q 165 -3 139 -3 q 113 -3 94 14 q 75 31 75 61 z"},"/":{"x_min":0,"x_max":828,"ha":828,"o":"m 186 -1 l 828 719 l 695 719 l 48 -1 z"},"[":{"x_min":0,"x_max":524,"ha":524,"o":""},"6":{"x_min":0,"x_max":974,"ha":974,"o":"m 177 332 q 185 245 243 188 q 308 125 413 125 l 664 125 q 700 125 719 155 q 737 181 737 222 q 737 265 717 298 q 697 332 664 332 z m 778 594 l 413 594 q 330 594 270 551 q 216 512 191 447 l 664 447 q 754 447 807 377 q 854 315 854 224 q 854 133 806 70 q 754 0 664 0 l 413 0 q 245 0 143 115 q 51 220 51 367 q 51 512 139 609 q 239 719 413 719 l 778 719 z"},"r":{"x_min":0,"x_max":959,"ha":959,"o":""},"2":{"x_min":0,"x_max":866,"ha":866,"o":"m 775 0 l 775 125 l 174 125 l 174 228 q 174 267 210 294 q 245 322 307 322 l 567 322 q 672 322 734 384 q 790 440 790 521 q 790 601 734 657 q 672 719 567 719 l 73 719 l 73 594 l 567 594 q 607 594 630 572 q 653 550 653 520 q 653 490 631 470 q 608 447 567 447 l 307 447 q 193 447 124 379 q 61 317 61 228 l 61 0 z"},"{":{"x_min":0,"x_max":524,"ha":524,"o":""},"9":{"x_min":0,"x_max":943,"ha":943,"o":"m 780 388 q 771 475 713 532 q 648 595 543 595 l 292 595 q 257 595 238 566 q 220 538 220 498 q 220 455 239 423 q 259 388 292 388 z m 178 126 l 543 126 q 627 126 687 169 q 741 208 765 273 l 292 273 q 202 273 150 343 q 102 405 102 495 q 102 586 150 650 q 203 720 292 720 l 543 720 q 712 720 813 605 q 906 500 906 353 q 906 208 817 110 q 717 1 543 1 l 178 1 z"}," ":{"x_min":0,"x_max":333,"ha":333,"o":""},"I":{"x_min":0,"x_max":314,"ha":314,"o":"m 87 0 l 87 719 l 212 719 l 212 0 z"},"H":{"x_min":0,"x_max":858,"ha":858,"o":"m 675 424 l 675 719 l 800 719 l 800 0 l 675 0 l 675 299 l 252 299 l 252 424 z m 196 0 l 71 0 l 71 719 l 196 719 z"},"4":{"x_min":0,"x_max":890,"ha":890,"o":"m 718 232 l 718 0 l 593 0 l 593 232 l 413 232 q 229 232 128 308 q 27 384 27 532 l 27 719 l 152 719 l 152 532 q 152 357 413 357 l 593 357 l 593 719 l 718 719 l 718 357 l 824 357 l 824 232 z"},"~":{"x_min":0,"x_max":583,"ha":583,"o":"m 42 272 l 42 372 q 94 431 178 431 q 208 431 240 422 q 272 414 332 388 q 365 374 382 370 q 399 365 416 365 q 448 365 482 384 q 516 403 542 432 l 542 329 q 511 299 479 286 q 447 273 407 273 q 377 273 350 280 q 324 287 266 312 q 208 338 170 338 q 139 338 111 325 q 83 312 42 272 z"},"D":{"x_min":0,"x_max":897,"ha":897,"o":"m 219 594 l 219 125 l 500 125 q 616 125 682 201 q 741 269 737 367 q 734 460 674 523 q 608 594 500 594 z m 94 0 l 94 719 l 500 719 q 673 719 773 609 q 862 512 862 367 q 862 220 770 115 q 668 0 500 0 z"},"^":{"x_min":0,"x_max":589,"ha":589,"o":"m 492 297 l 403 297 l 297 491 l 192 296 l 105 296 l 257 580 q 268 600 296 600 q 324 600 336 580 z"},"0":{"x_min":0,"x_max":861,"ha":861,"o":"m 413 594 q 304 594 238 523 q 179 460 175 367 q 172 269 231 201 q 297 125 413 125 l 464 125 q 580 125 646 201 q 705 269 701 367 q 698 460 638 523 q 572 594 464 594 z m 413 0 q 244 0 143 115 q 51 220 51 367 q 51 512 139 609 q 239 719 413 719 l 464 719 q 638 719 737 609 q 826 512 826 367 q 826 220 734 115 q 632 0 464 0 z"},"F":{"x_min":0,"x_max":731,"ha":731,"o":"m 656 427 l 656 302 l 245 302 l 245 427 z m 192 0 l 67 0 l 67 719 l 688 719 l 688 594 l 192 594 z"},"`":{"x_min":0,"x_max":693,"ha":693,"o":"m 584 454 l 33 636 l 72 754 l 623 572 z"},"k":{"x_min":0,"x_max":807,"ha":807,"o":""},"u":{"x_min":0,"x_max":959,"ha":959,"o":""},"]":{"x_min":0,"x_max":489,"ha":489,"o":""},"U":{"x_min":0,"x_max":959,"ha":959,"o":"m 499 0 l 456 0 q 274 0 182 71 q 80 150 80 324 l 80 719 l 205 719 l 205 324 q 205 210 275 163 q 333 125 456 125 l 499 125 q 622 125 680 163 q 750 210 750 324 l 750 719 l 875 719 l 875 324 q 875 150 772 71 q 681 0 499 0 z"},"o":{"x_min":0,"x_max":1011,"ha":1011,"o":""},"N":{"x_min":0,"x_max":887,"ha":887,"o":"m 660 36 l 199 499 l 199 0 l 74 0 l 74 656 q 74 685 89 702 q 104 719 128 719 q 163 719 199 682 l 660 220 l 660 719 l 785 719 l 785 62 q 785 -7 738 -7 q 703 -7 660 36 z"},"+":{"x_min":0,"x_max":474,"ha":474,"o":"m 285 301 l 285 170 l 160 170 l 160 301 l 34 301 l 34 426 l 160 426 l 160 549 l 285 549 l 285 426 l 406 426 l 406 301 z"},"G":{"x_min":0,"x_max":916,"ha":916,"o":"m 413 0 q 245 0 143 115 q 51 220 51 367 q 51 512 139 609 q 239 719 413 719 l 818 719 l 818 594 l 413 594 q 305 594 238 523 q 179 460 175 367 q 172 269 231 201 q 297 125 413 125 l 744 125 l 744 282 l 403 282 l 403 397 l 869 397 l 869 0 z"},"q":{"x_min":0,"x_max":1018,"ha":1018,"o":""},"d":{"x_min":0,"x_max":897,"ha":897,"o":""},"1":{"x_min":0,"x_max":405,"ha":405,"o":"m 193 0 l 193 466 q 193 594 75 594 l 38 594 l 38 719 l 75 719 q 191 719 254 652 q 317 584 317 466 l 317 0 z"},"5":{"x_min":0,"x_max":853,"ha":853,"o":"m 567 0 l 19 0 l 19 125 l 567 125 q 629 125 666 156 q 700 185 700 225 q 700 265 667 292 q 630 322 567 322 l 19 322 l 19 719 l 770 719 l 770 594 l 141 594 l 141 447 l 567 447 q 683 447 751 377 q 813 313 813 222 q 813 131 752 69 q 684 0 567 0 z"}}}
